PathFileType	4	(X/Y/Z)	20_2_31_p1_0-964_filt_butterworth.trc
DataRate	CameraRate	NumFrames	NumMarkers	Units	OrigDataRate	OrigDataStartFrame	OrigNumFrames
60.0	60.0	6	27	m	60.0	0	964
Frame#	Time	RHip			RKnee			RAnkle			RBigToe			RSmallToe			RHeel			LHip			LKnee			LAnkle			LBigToe			LSmallToe			LHeel			Neck			Head			Nose			RShoulder			RElbow			RWrist			RThumb			RIndex			RPinky			LShoulder			LElbow			LWrist			LThumb			LIndex			LPinky			
		X1	Y1	Z1	X2	Y2	Z2	X3	Y3	Z3	X4	Y4	Z4	X5	Y5	Z5	X6	Y6	Z6	X7	Y7	Z7	X8	Y8	Z8	X9	Y9	Z9	X10	Y10	Z10	X11	Y11	Z11	X12	Y12	Z12	X13	Y13	Z13	X14	Y14	Z14	X15	Y15	Z15	X16	Y16	Z16	X17	Y17	Z17	X18	Y18	Z18	X19	Y19	Z19	X20	Y20	Z20	X21	Y21	Z21	X22	Y22	Z22	X23	Y23	Z23	X24	Y24	Z24	X25	Y25	Z25	X26	Y26	Z26	X27	Y27	Z27	
0	0.0	0.3556191889621479	0.6828924179390634	0.7483219631546503	0.3489032324570313	0.29069801048847144	0.7796322936500056	0.35466381048829587	-0.11786780549773013	0.8196988952943063	0.31178130618810196	-0.1347055720543376	0.6252975791965959	0.3796259127565141	-0.14353658660722415	0.6554264080132368	0.3344773437815037	-0.18440104483703768	0.8865278807479438	0.14562158200434006	0.6752315501625683	0.757553867108294	0.1421310131706584	0.31293680927534917	0.78082114120299	0.1431280062204141	-0.07977812045112931	0.8193729576161692	0.1523416018034076	-0.10820730566954274	0.6127869136957395	0.09106808783812087	-0.1324893654203751	0.6793743659995742	0.1593035770659984	-0.15158739844276975	0.8771913959809235	0.25443722591767676	1.232139926220476	0.7754737890205621	0.2632348491844401	1.4770915517040826	0.7115910561069185	0.2508610399327416	1.3617439984040367	0.6502373339680418	0.39432838612391646	1.1551062022749994	0.721285342921792	0.4593177129438364	0.8923055044384467	0.7118422927349168	0.321589208780136	0.7226105945819017	0.5715276348210399	0.21594712772984173	0.6668720696271246	0.5769564687584002	0.21315553057014852	0.6433671038925051	0.5841203107468299	0.23441040307660138	0.6333891948673706	0.5717318473465205	0.11260415132317907	1.1414485244208226	0.7845904873411522	0.06119855488386248	0.9016619920938093	0.7102109014982134	0.15792986404926596	0.7377370044459682	0.5711927687458237	0.23697979047815163	0.6883203520067898	0.5625155683337562	0.2361770995529042	0.6544662481733767	0.5580542052128996	0.2287492404975491	0.6314032437677203	0.5833761720658044	
1	0.0166666666666666	0.35640270507521626	0.6845882589080542	0.750836808497573	0.3490333882756949	0.2925324393808719	0.7782970023602468	0.35408794754663137	-0.11507044513862284	0.8149265775376358	0.3089046740914223	-0.13262272946388726	0.6189364083381712	0.37741553547765366	-0.14273504447849833	0.6542409246567961	0.3346860272986969	-0.1856413294464977	0.8874817734314835	0.14504669087877917	0.6774510904449367	0.7579454371769857	0.14302251554023557	0.31315066962627613	0.7807958109285489	0.14317783337075532	-0.07998396483696299	0.8194026975383778	0.15305786573936564	-0.11129425700455042	0.6156986386911325	0.09104263065179533	-0.13244260881124587	0.6793849024676185	0.15992768729698115	-0.15423238181744497	0.876738902206123	0.2541109926741357	1.231943097324395	0.7775795623378559	0.262698568113155	1.4773565001491147	0.7108260660188028	0.2490707839330538	1.3642381665476413	0.645935367227582	0.39455565989644426	1.1556825430285596	0.7215876096340388	0.4567647929115509	0.8903735562264212	0.7062328052247964	0.3214277991347131	0.72351699467012	0.5715959872820433	0.21698560913913126	0.6643919070485163	0.5740005809480687	0.21611753498832237	0.6440455812843249	0.5765799017924166	0.2339052580339341	0.6348052348015417	0.5737009425436108	0.11249346636491822	1.144013567595639	0.7854219487667786	0.060908091323685624	0.9013337691265668	0.7100530556781641	0.15633121040993112	0.7361800781238451	0.5758057455166332	0.23723027606410596	0.6900022709838893	0.559705894222807	0.23643454947188752	0.6556732588671139	0.5554164456928198	0.22835739498394736	0.6333404261326382	0.5843262054811202	
2	0.0333333333333333	0.35704909689447795	0.6859695896963632	0.7529617873369481	0.3491432082968044	0.2938608954280508	0.7774240974696723	0.3536719371165595	-0.11257876089352306	0.8106871516451283	0.3071256413846855	-0.1313043227877335	0.6151784105299692	0.3759777798781532	-0.14081667521390218	0.651325485218054	0.3348140457744792	-0.18660821393860025	0.8881205692649551	0.14456867461234213	0.6793439149704854	0.7582779347609115	0.1437554305096904	0.31333746288914344	0.7807548892832492	0.14321289381909336	-0.08013335619984757	0.8194341390807112	0.15313311044720468	-0.11282079572784828	0.6155731339730872	0.09103642881163665	-0.1324015958091736	0.6793593968069421	0.16039405014149483	-0.15625844571537878	0.8764469594977297	0.2539225608191635	1.2319241880744636	0.7781533653958914	0.2624561530879008	1.4774487949920547	0.7106710351430664	0.24782343601214205	1.3662440778266611	0.6428431040821654	0.3945985544317338	1.1557407663794914	0.721643129406849	0.45366551455435467	0.8888722572346022	0.7029718690751968	0.32132996226645094	0.7238696705178029	0.5716726995126198	0.21813449753762437	0.6619676718212973	0.5728888856831887	0.21831852066120636	0.6439909723340043	0.5729877714458442	0.23361685740904484	0.6345660319537275	0.5767208169274658	0.1124385011085988	1.1454529527296884	0.78587441696135	0.06079524025321253	0.9008801165727993	0.7098689944894914	0.15512076351513013	0.7342382108519232	0.581317754419979	0.23712764924397498	0.6898247289541796	0.5586710081572133	0.23656075149685984	0.6560981684192153	0.5544127422572047	0.2281756268217501	0.6341816617033742	0.584743359554473	
3	0.05	0.35756953901177396	0.687061082551901	0.7547252536463743	0.3492344375206733	0.2947290426156285	0.776969873415472	0.35340080460289036	-0.11037591162652174	0.8069502975026701	0.3061856141795343	-0.13054296115020259	0.6133743671896436	0.37518408753873955	-0.138122676063115	0.6472119321605622	0.3348702933323213	-0.18732525241611472	0.888476766129742	0.144180132270465	0.6809301285050253	0.7585546496389517	0.14434314164510517	0.3134967077886114	0.7807005207232528	0.14323471987937944	-0.0802319832749581	0.8194668103850465	0.15274584743773095	-0.11314095065566547	0.6132675889015335	0.09104400311802777	-0.1323645864241528	0.6793076723377397	0.16071854717269654	-0.15772047121959673	0.8762956847944406	0.25387997038374616	1.2320513451306363	0.7774761465303288	0.2624736063342162	1.4774273607033757	0.7108901905382027	0.2470564304721135	1.3677983031286114	0.640844438876272	0.39453344271400914	1.1553994117280217	0.7215120489262878	0.4502349790224304	0.8876822522617738	0.7015838812929496	0.32129235757104785	0.7237269475120272	0.5717536022367928	0.21934110064654386	0.6595899127524882	0.5732442599064532	0.21989952186278144	0.6433869332205845	0.5724748039771026	0.23350128526805458	0.6331038558689875	0.580449756275068	0.11242837247988159	1.145976939767059	0.7860153104768082	0.060859636787789065	0.900320119887502	0.7096765148838112	0.15423722844509638	0.7320664234331817	0.5873171598549072	0.23673689720023575	0.6881297197112448	0.5590910135998478	0.23655148558220132	0.6558381875642696	0.5547731392003052	0.22815916986380033	0.6341700740870453	0.5847534783718582	
4	0.0666666666666666	0.35797520601894545	0.6878874097225787	0.7561555613994505	0.34930882094761495	0.295182544929226	0.7768906246348353	0.3532595754104342	-0.1084450562017095	0.8036856949961474	0.3058259985876116	-0.13013125367562017	0.6128750597348479	0.3749059000401395	-0.13499424427581563	0.6424321079478724	0.3348636640956941	-0.18781599898181003	0.8885828619072278	0.1438736629185839	0.6822298358143669	0.7587788715899871	0.14479903251256224	0.31362792304934045	0.7806348497047216	0.14324484386556477	-0.08028553479746894	0.8195002395932611	0.15207458822175063	-0.11260875060423065	0.6096391928364018	0.09105987437135157	-0.13232984066617798	0.6792395523802052	0.1609170599637434	-0.15867333941312448	0.8762651950349539	0.2539912613988698	1.2322927151528684	0.7758288540768272	0.26271693007763974	1.47735112175355	0.7112477592627049	0.24670720161507517	1.3689374133410077	0.6398232659543819	0.3944366977274945	1.1547770184743775	0.7212545148784205	0.44668828746596106	0.8866841861067218	0.7015932388848859	0.32131164444420196	0.7231471510398687	0.5718345261785862	0.2205527261871124	0.6572491786491086	0.5746895805605552	0.22100157286702862	0.6424171201231073	0.5741718836561812	0.23351462567708445	0.6308509760923824	0.5845460463634002	0.11245219740442736	1.1457957886518397	0.7859120478650952	0.061100916042761105	0.8996728645256706	0.7094934138127394	0.15361931028006334	0.7298197366706001	0.5933923262204636	0.23612300711536532	0.6852592370486683	0.5606460140135836	0.23640253168229217	0.6549905270368648	0.5562276808163721	0.22826325796294103	0.6335487868907687	0.5844824060192713	
5	0.0833333333333333	0.35827727250783353	0.6884732434563064	0.7572810645697751	0.3493681035779428	0.2952670663544639	0.777142645564952	0.3532332749440012	-0.1067693534831772	0.8008630240114458	0.30578820072056084	-0.12986180948831672	0.613031269583236	0.37501465896308084	-0.13177257710168766	0.637517855043537	0.3348030521880684	-0.18810400773845573	0.8884713544787958	0.14364186562213488	0.6832631416643211	0.7589538903928981	0.1451364866781439	0.31373062739599095	0.7805600206838175	0.14324479809160057	-0.08029969950255489	0.8195339548472323	0.1512978443100703	-0.11157822438977628	0.605545135137623	0.09107856337199113	-0.132295618545249	0.6791648602545335	0.16100547008779242	-0.15917193137898777	0.8763356071579668	0.2542644738955212	1.2326164448011132	0.7734924363710475	0.2631521265437106	1.4772790026130496	0.711507968375067	0.24671318374313472	1.369697979351365	0.6396634796609761	0.39438469245641494	1.153992126018784	0.7209306739493131	0.44324054103513066	0.8857587035682287	0.7025243388578384	0.32138448228161226	0.7221886064884014	0.5719113020620243	0.22171668188055327	0.6549360183181757	0.5768477245881882	0.2217657079479293	0.6412651892206113	0.5772098947530706	0.233612962702256	0.6282396621689696	0.588667972969446	0.11249909280789716	1.1451197593281173	0.7856320476781536	0.06151871313347468	0.8989574359422985	0.7093374882278928	0.15320571410026473	0.7276531713671556	0.5991316179156946	0.23535096617184126	0.6815552747600325	0.5630161128612939	0.23610966975151298	0.6536523975715864	0.5585064113996566	0.2284431249720157	0.6325609237216585	0.5840559865827079	
